<svg width="449" height="104" fill="none" xmlns="http://www.w3.org/2000/svg"><path fill-rule="evenodd" clip-rule="evenodd" d="m146.533 89.038-4.279-14.308h-27.651l-4.274 14.308H95.515l24.938-73.207h15.645l25.142 73.207h-14.707ZM128.479 29 118.26 62.696h20.342L128.479 29Z" fill="#2D3132"/><path d="M164.581 89.038V15.832h12.729v73.207h-12.729ZM186.178 89.038V15.832h12.729v73.207h-12.729ZM259.737 83.336c-8.869 7.466-20.761 7.567-24.102 7.567-4.386 0-18.466-.207-28.691-10.887-1.255-1.348-2.611-3.112-3.549-4.77l11.581-7.983c3.233 4.77 9.281 10.989 22.847 10.989.627 0 3.233 0 5.421-.517 1.571-.31 8.766-2.276 8.766-9.124 0-.724-.101-2.696-1.351-4.354-2.509-3.32-9.179-4.258-12.836-5.084l-8.756-1.971c-3.764-.826-7.828-1.658-11.169-3.422-3.442-1.764-10.541-6.432-10.541-17.005 0-1.658.209-6.427 2.826-10.787 3.329-5.595 11.361-12.022 26.289-12.022 6.568 0 19.506 1.034 29.731 14.826l-11.372 8.393c-2.295-3.624-7.512-10.882-19.094-10.882-.729 0-10.016-.107-13.04 5.596-.627 1.145-.831 2.18-.831 3.32 0 1.241.311 2.286.933 3.32 1.775 3.005 5.844 3.938 12.627 5.393l7.614 1.657c6.992 1.556 14.718 3.63 19.614 9.332 2.091 2.28 4.278 5.595 4.278 12.342 0 6.635-2.085 11.719-7.195 16.073ZM272.882 29.1V15.827h12.413V29.1h-12.413Zm0 59.938V37.185h12.413v51.853h-12.413Z" fill="#2D3132"/><path fill-rule="evenodd" clip-rule="evenodd" d="M329.121 89.038v-4.982c-.525.522-.938 1.145-1.458 1.662-1.984 1.87-6.268 4.877-13.046 4.877-1.769 0-5.533-.208-9.705-2.18-5.635-2.59-13.458-9.337-13.458-24.264 0-15.865 8.659-24.056 14.606-26.752 1.667-.725 4.697-1.764 9.077-1.764 1.775 0 5.534.1 9.496 2.28.729.416 1.357.73 2.606 1.663.944.725 1.673 1.658 1.882 1.865V15.831h12.413v73.207h-12.413Zm-2.402-36.398c-.627-1.14-1.775-2.489-2.713-3.213-2.08-1.658-4.386-2.281-6.992-2.281-1.04 0-3.753.202-6.359 1.865-5.952 3.837-6.161 12.236-6.161 13.792 0 7.674 3.233 16.488 12.418 16.488 3.341 0 5.946-1.039 8.134-3.522 3.233-3.528 4.075-7.78 3.968-12.45 0-3.32-.52-7.567-2.295-10.679ZM395.06 82.813c-2.922 2.697-9.914 7.781-20.664 7.781-3.335 0-11.582-.416-18.67-6.944-5.947-5.606-8.14-12.763-8.14-20.848 0-4.354.628-8.5 2.295-12.443 2.295-5.186 8.767-14.725 23.893-14.725 11.683 0 17.844 6.011 20.557 9.955 2.391 3.63 4.794 9.955 5.105 20.016h-38.6c.209 1.551.729 4.765 3.345 7.882 1.764 2.175 4.901 4.973 11.367 4.973 6.472 0 10.226-3 11.893-4.775.418-.406 1.046-1.237 1.775-2.377l10.643 6.118c-.836 1.135-2.295 3.106-4.799 5.387Zm-10.434-30.59c-1.153-2.488-3.866-6.634-10.643-6.634-2.713 0-4.177.517-5.217.933-5.839 2.387-7.201 8.19-7.512 9.955h24.412c-.203-1.658-.552-3.075-1.04-4.253Z" fill="#2D3132"/><path d="M447.225 79.914c-2.504 4.77-8.97 10.68-21.705 10.68-9.801 0-16.793-3.32-20.026-5.292-1.775-1.135-3.443-2.489-5.014-4.045l9.389-7.573c.418.528 1.046 1.455 2.402 2.601 4.488 3.832 11.169 4.04 12.627 4.04 3.126 0 6.783-.725 8.863-3.107.842-.832 1.357-1.972 1.357-3.006 0-.42-.102-1.242-.831-2.18-1.357-1.87-3.024-1.971-6.885-2.803-3.442-.725-6.89-1.14-10.219-1.966-2.301-.624-14.402-3.528-14.402-14.725 0-3.943 1.667-6.842 2.396-7.988 2.612-4.04 8.767-8.916 20.032-8.916 4.065 0 14.611.623 22.434 9.646l-8.868 8.19c-1.046-2.179-2.397-3.426-3.233-4.15-3.239-2.798-6.676-3.731-10.955-3.731-.52 0-4.075 0-6.364 1.556-1.882 1.247-2.295 2.9-2.295 3.832.096 1.764 1.351 3.01 1.667 3.219 1.357 1.039 4.805 1.865 8.971 2.59 2.82.522 5.635.932 8.45 1.556 2.82.623 5.946 1.556 8.252 3.219 1.871 1.348 5.732 4.972 5.732 11.298 0 2.494-.627 4.876-1.775 7.055Z" fill="#2D3132"/><path d="M40.239 42.498 18.132 17.68c-2.606-2.92-5.759-2.302-7.008 1.38L.513 50.316c-1.25 3.677-.134 9.086 2.466 12.012l5.078 5.702 10.59 28.778c.772 2.094 1.587 1.988 1.817-.219l1.373-13.094 3.244 3.65c2.61 2.921 5.764 2.298 7.008-1.38L42.694 54.51c1.255-3.682.15-9.092-2.456-12.012Z" fill="#DD2A19"/><path d="m90.287 41.645-32.498 6.683c-3.823.783-7.984 4.444-9.233 8.127L37.95 87.705c-1.255 3.688.863 6.054 4.686 5.27l12.166-2.51 18.477 12.743c1.067.735 1.893.282 1.834-1.007l-.745-15.754.766-.154c3.829-.794 7.984-4.445 9.239-8.133l10.606-31.245c1.249-3.687-.858-6.059-4.692-5.27Z" fill="#2062A6"/><path d="m91.284 28.887-4.879-5.473 1.684-17.496c.128-1.29-.751-1.929-1.947-1.417L74.094 9.595l-4.917-5.52C66.567 1.148 61.301-.6 57.472.188L24.974 6.867c-3.823.789-4.83 3.82-2.22 6.752l22.102 24.813c2.6 2.92 7.877 4.673 11.7 3.885l32.492-6.683c3.834-.784 4.831-3.821 2.236-6.747Z" fill="#8C63A6"/></svg>